Coordinates
version=1
nRows=21
nColumns=28
inDegrees=yes

Units are S.I. units (second, meters, Newtons, ...)
Angles are in degrees.

endheader
time	pelvis_tilt	pelvis_list	pelvis_rotation	pelvis_tx	pelvis_ty	pelvis_tz	hip_flexion_r	hip_adduction_r	hip_rotation_r	knee_angle_r	ankle_angle_r	subtalar_angle_r	mtp_angle_r	hip_flexion_l	hip_adduction_l	hip_rotation_l	knee_angle_l	socket_flexion	socket_adduction	socket_rotation	socket_tx	socket_ty	socket_tz	foot_flex	lumbar_extension	lumbar_bending	lumbar_rotation
      0.82083333	     -0.46892503	     -7.83223768	      7.39313230	      0.35273180	      0.98251725	      0.23217534	      7.84007112	     15.55669429	      3.75645973	    -18.77678244	      0.97104755	    -25.94670270	     -0.60967604	     25.58759612	    -16.59520974	      3.81965047	    -69.67408120	      0.75589835	      0.00000000	      0.00000000	      0.00000000	      0.00370772	      0.00000000	     -1.43341985	     -6.15203891	      7.22104782	     -8.91239906
      0.82500000	     -0.54928555	     -7.55350964	      7.24037713	      0.35782785	      0.98368592	      0.23155720	      7.28768337	     15.22416540	      3.99519344	    -18.37524662	      0.92983675	    -25.84945244	     -0.52859831	     26.36632656	    -15.94526136	      4.00395320	    -69.49563036	      0.63413453	      0.00000000	      0.00000000	      0.00000000	      0.00475760	      0.00000000	     -1.44504403	     -6.17096247	      6.95953451	     -8.76641161
      0.82916667	     -0.65755781	     -7.26867446	      7.12909677	      0.36301630	      0.98479542	      0.23094136	      6.76263775	     14.87586932	      4.17316509	    -17.95303996	      0.85497424	    -25.72568525	     -0.43876123	     27.12395824	    -15.27850438	      4.21767922	    -69.20166089	      0.53090295	      0.00000000	      0.00000000	      0.00000000	      0.00561297	      0.00000000	     -1.46372834	     -6.14651192	      6.66007537	     -8.61278102
      0.83333333	     -0.76503986	     -6.99702189	      7.01527735	      0.36824053	      0.98588004	      0.23036364	      6.25034627	     14.53806674	      4.30334911	    -17.54839435	      0.76877011	    -25.58836081	     -0.34177130	     27.85270548	    -14.65157074	      4.40537591	    -68.85081495	      0.42512130	      0.00000000	      0.00000000	      0.00000000	      0.00644485	      0.00000000	     -1.47258532	     -6.11389319	      6.38132330	     -8.47498385
      0.83750000	     -0.86553315	     -6.74598191	      6.89455073	      0.37349453	      0.98690778	      0.22985822	      5.74592644	     14.22626089	      4.41687673	    -17.16037487	      0.68261889	    -25.44424191	     -0.23926321	     28.55156686	    -14.07729381	      4.57144137	    -68.47759415	      0.28471572	      0.00000000	      0.00000000	      0.00000000	      0.00726448	      0.00000000	     -1.48054976	     -6.08108655	      6.13032834	     -8.35244353
      0.84166667	     -0.96357249	     -6.51539751	      6.76935218	      0.37876454	      0.98790535	      0.22941524	      5.24489313	     13.94106670	      4.53182707	    -16.77445551	      0.59480907	    -25.29878946	     -0.13517302	     29.23176094	    -13.55492263	      4.71683837	    -68.09152222	      0.10006081	      0.00000000	      0.00000000	      0.00000000	      0.00811542	      0.00000000	     -1.48630792	     -6.04571419	      5.89979158	     -8.23862101
      0.84583333	     -1.05529333	     -6.30513413	      6.63775482	      0.38406093	      0.98884262	      0.22904747	      4.74518982	     13.68476647	      4.64499344	    -16.39853921	      0.49672335	    -25.15775365	     -0.02791084	     29.88487752	    -13.08206183	      4.84371853	    -67.69164674	     -0.12835240	      0.00000000	      0.00000000	      0.00000000	      0.00892065	      0.00000000	     -1.48929577	     -6.01980457	      5.68880592	     -8.12948458
      0.85000000	     -1.14351452	     -6.11585234	      6.49987339	      0.38938521	      0.98973225	      0.22875213	      4.24787989	     13.45690439	      4.76856411	    -16.02114388	      0.39440433	    -25.02881358	      0.07566442	     30.52082805	    -12.66062715	      4.95609242	    -67.29101570	     -0.40666681	      0.00000000	      0.00000000	      0.00000000	      0.00978069	      0.00000000	     -1.49131281	     -5.98742479	      5.49814303	     -8.02194913
      0.85416667	     -1.14777050	     -6.08077485	      6.24892354	      0.39429182	      0.99049270	      0.22880938	      3.91760963	     13.41992568	      4.73538309	    -16.04511831	      0.38571503	    -25.01019223	      0.08849989	     31.07062890	    -12.52697675	      4.99140238	    -66.88008595	     -0.70825696	      0.00000000	      0.00000000	      0.00000000	      0.01022341	      0.00000000	     -1.44070225	     -6.13043898	      5.49803867	     -8.00505277
      0.85833333	     -1.31796655	     -5.80427715	      6.19891170	      0.40002810	      0.99132889	      0.22833521	      3.29777837	     13.09527732	      5.06395503	    -15.33255725	      0.24853366	    -24.83228311	      0.18901185	     31.76635674	    -11.97230580	      5.12230326	    -66.54350111	     -1.15849427	      0.00000000	      0.00000000	      0.00000000	      0.01159078	      0.00000000	     -1.48719259	     -5.91364404	      5.19227682	     -7.83845045
      0.86250000	     -1.40799185	     -5.67846959	      6.06384416	      0.40539324	      0.99205349	      0.22822829	      2.81879312	     12.95496414	      5.20990802	    -14.95345842	      0.06888500	    -24.74054998	      0.27070682	     32.35460601	    -11.69060881	      5.19595408	    -66.11112233	     -1.57346037	      0.00000000	      0.00000000	      0.00000000	      0.01239174	      0.00000000	     -1.48796977	     -5.87082843	      5.05159444	     -7.71250639
      0.86666667	     -1.48948536	     -5.57749502	      5.90262246	      0.41070951	      0.99270995	      0.22815143	      2.36555425	     12.83997080	      5.34945962	    -14.63497615	     -0.08402037	    -24.69807088	      0.34329103	     32.91836268	    -11.46173692	      5.24693425	    -65.68041459	     -2.03197627	      0.00000000	      0.00000000	      0.00000000	      0.01315707	      0.00000000	     -1.47010091	     -5.84117864	      4.93850517	     -7.60221927
      0.87083333	     -1.50582471	     -5.55060568	      5.70392710	      0.41554740	      0.99331480	      0.22828059	      2.06490138	     12.82443420	      5.33722783	    -14.65712193	     -0.10551131	    -24.68940224	      0.35424840	     33.45619630	    -11.36789835	      5.27418157	    -65.21171052	     -2.41377148	      0.00000000	      0.00000000	      0.00000000	      0.01389696	      0.00000000	     -1.40501371	     -5.99276683	      4.92906774	     -7.58260209
      0.87500000	     -1.58091864	     -5.43058795	      5.41535290	      0.42140592	      0.99415652	      0.22856016	      1.21084467	     12.78967947	      6.38750382	    -13.67096660	     -1.44521848	    -26.34840054	      1.14802247	     33.83976999	    -11.26550769	      5.11382166	    -64.76173105	     -3.10628496	      0.00000000	      0.00000000	      0.00000000	      0.01471511	      0.00000000	     -1.46653370	     -5.88060989	      4.73890545	     -6.97780109
      0.87916667	     -1.60574338	     -5.41274931	      5.24564698	      0.42625040	      0.99464169	      0.22862952	      0.92451799	     12.77934255	      6.37247588	    -13.69488661	     -1.45146233	    -26.33980465	      1.15371669	     34.35693807	    -11.18198180	      5.14428740	    -64.27860538	     -3.56674110	      0.00000000	      0.00000000	      0.00000000	      0.01544461	      0.00000000	     -1.39382732	     -6.01211017	      4.73738428	     -6.97310362
      0.88333333	     -1.80468352	     -5.30456454	      5.09787903	      0.43204765	      0.99501055	      0.22857217	      0.43245175	     12.65387454	      6.72029780	    -13.10475971	     -1.67714899	    -26.23755685	      1.20181265	     34.91116359	    -10.98101166	      5.12491333	    -63.86935607	     -4.34059257	      0.00000000	      0.00000000	      0.00000000	      0.01627823	      0.00000000	     -1.42297772	     -5.74098797	      4.60223436	     -6.85987714
      0.88750000	     -1.87500282	     -5.28406067	      4.92516463	      0.43723660	      0.99535266	      0.22853599	      0.12071787	     12.62727853	      6.75188247	    -13.04075972	     -1.71351672	    -26.24928420	      1.20709730	     35.35045041	    -10.89109276	      5.14334749	    -63.33906649	     -4.96794721	      0.00000000	      0.00000000	      0.00000000	      0.01675607	      0.00000000	     -1.34623008	     -5.72686811	      4.62327558	     -6.82286964
      0.89166667	     -2.08410453	     -5.25673613	      4.49484188	      0.44262561	      0.99568691	      0.22913599	     -0.31470039	     12.66944871	      7.70880861	    -12.52206448	     -2.51511168	    -27.41526753	      1.15175215	     35.82969984	    -11.02060446	      4.80258880	    -62.80561891	     -5.68484659	      0.00000000	      0.00000000	      0.00000000	      0.01742612	      0.00000000	     -1.35702871	     -5.55477741	      4.51822193	     -6.22873948
      0.89583333	     -2.20610728	     -5.22447730	      4.36383379	      0.44795305	      0.99591370	      0.22906672	     -0.65548682	     12.62649341	      7.80939758	    -12.29192258	     -2.60764045	    -27.40631351	      1.14219456	     36.26025889	    -10.92878085	      4.76809178	    -62.20291390	     -6.36364298	      0.00000000	      0.00000000	      0.00000000	      0.01788060	      0.00000000	     -1.34554539	     -5.46352674	      4.50540461	     -6.22224322
      0.90000000	     -2.29038941	     -5.21628481	      4.21415930	      0.45305187	      0.99608453	      0.22896197	     -0.92996414	     12.61148291	      7.84816013	    -12.24412639	     -2.64835968	    -27.40969245	      1.13716479	     36.65450286	    -10.84532428	      4.78120462	    -61.58176523	     -7.03080122	      0.00000000	      0.00000000	      0.00000000	      0.01831305	      0.00000000	     -1.25992294	     -5.45121926	      4.53657488	     -6.20212149
      0.90416667	     -2.41136224	     -5.21004990	      4.06506108	      0.45827178	      0.99619213	      0.22878945	     -1.21887893	     12.58603868	      7.92343304	    -12.09604180	     -2.70644960	    -27.40662431	      1.13131037	     37.02906074	    -10.77560028	      4.74175195	    -60.90307089	     -7.72900798	      0.00000000	      0.00000000	      0.00000000	      0.01863239	      0.00000000	     -1.21171941	     -5.36293038	      4.55768170	     -6.16800698
